<svg class="svg-icon" style="width: 1em; height: 1em;vertical-align: middle;overflow: hidden;" viewBox="0 0 1024 1024" version="1.1" xmlns="http://www.w3.org/2000/svg">
<path d="M480 288h-80v112h-112v80h112v112h80v-112h112v-80h-112v-112z m216.592 353.504c100.72-128.384 92.032-313.808-26.24-432.064-127.648-127.68-334.4-127.728-462.08 0-127.68 127.632-127.792 334.368-0.016 462.08 118.56 118.56 304.064 126.672 432.096 26.24l210.56 210.56 56.256-56.272-210.576-210.56z m-257.28 46.128c-136.608 0-247.2-110.496-247.2-247.136s110.56-247.2 247.2-247.2 247.168 110.56 247.168 247.184c0 136.64-110.56 247.152-247.168 247.152z" />
</svg>