<svg width="154" height="72" viewBox="0 0 154 72" fill="none" xmlns="http://www.w3.org/2000/svg">
    <path d="M0 8.9122L4.24249 8.95352L8.67664 22.7556L13.7759 8.95352H17.9094L22.9298 22.7556L27.5217 8.95352H31.7605L24.9965 28.3966H20.972L15.7976 14.5006L10.5367 28.3966H6.45957L0 8.9122Z" fill={fill}/>
    <path d="M35.8752 0.375571C36.2473 0.360762 36.6184 0.423099 36.9653 0.558659C37.3121 0.694219 37.627 0.900066 37.8904 1.16324C38.1537 1.42642 38.3597 1.74123 38.4953 2.08785C38.6309 2.43448 38.6933 2.80541 38.6785 3.1773C38.6519 3.90212 38.3451 4.5884 37.8227 5.0918C37.3002 5.5952 36.6028 5.87647 35.8771 5.87647C35.1514 5.87647 34.4539 5.5952 33.9315 5.0918C33.409 4.5884 33.1022 3.90212 33.0757 3.1773C33.0609 2.80574 33.1232 2.43513 33.2586 2.08877C33.394 1.74241 33.5996 1.42779 33.8625 1.16467C34.1254 0.90155 34.4399 0.695621 34.7863 0.559823C35.1327 0.424025 35.5034 0.361294 35.8752 0.375571ZM33.7709 8.95353H37.9795V28.3966H33.7709V8.95353Z" fill={fill}/>
    <path d="M39.9524 24.3893L43.6876 22.3688C44.8149 24.1978 46.4871 25.1668 48.8207 25.1668C51.2331 25.1668 52.4807 24.0025 52.4807 22.6392C52.4807 21.0468 50.1434 20.6975 47.6558 20.1529C44.349 19.4919 40.8467 18.4028 40.8467 14.3955C40.8467 11.3233 43.8041 8.48406 48.4336 8.52537C52.1914 8.52537 54.7354 9.92248 56.37 12.281L52.8678 14.1852C51.9358 12.7881 50.4966 11.9693 48.4336 11.9693C46.1376 11.9693 45.0516 13.0209 45.0516 14.3053C45.0516 15.7025 46.7238 16.0142 49.6812 16.6752C52.9504 17.3775 56.6481 18.4629 56.6481 22.5491C56.6481 25.4635 54.0402 28.8098 48.6328 28.7684C44.4241 28.7835 41.6246 27.2699 39.9524 24.3893Z" fill={fill}/>
    <path d="M58.23 18.7521C58.23 13.0359 62.6266 8.56293 68.3459 8.56293C74.0652 8.56293 78.349 12.7242 78.349 18.4779V20.1116H62.2396C62.7844 23.1162 65.118 25.0916 68.5037 25.0916C69.6885 25.1222 70.8565 24.8075 71.8654 24.186C72.8743 23.5645 73.6804 22.6629 74.1854 21.5914L77.6087 23.4955C75.8952 26.6841 72.8214 28.7835 68.5037 28.7835C62.356 28.7835 58.23 24.3893 58.23 18.7521ZM62.435 16.5738H74.1065C73.4827 13.7758 71.3446 12.2172 68.3459 12.2172C67.0188 12.1942 65.721 12.6084 64.6527 13.3957C63.5845 14.1831 62.8051 15.2998 62.435 16.5738Z" fill={fill}/>
    <path d="M79.3749 8.95353H82.6817V4.3641L86.8866 2.06938V8.95353H91.0201V12.6867H86.8866V20.4234C86.8866 23.9236 87.4315 24.4682 91.0201 24.4682V28.3966H90.4001C84.4854 28.3966 82.693 26.5188 82.693 20.4647V12.6867H79.3862L79.3749 8.95353Z" fill={fill}/>
    <path d="M92.1813 18.7521C92.1813 13.0359 96.5779 8.56293 102.297 8.56293C108.016 8.56293 112.308 12.7242 112.308 18.4779V20.1116H96.1908C96.7357 23.1162 99.0693 25.0916 102.455 25.0916C103.639 25.1224 104.807 24.8078 105.815 24.1862C106.824 23.5646 107.629 22.6629 108.133 21.5914L111.556 23.4955C109.843 26.6841 106.769 28.7835 102.451 28.7835C96.3073 28.7835 92.1813 24.3893 92.1813 18.7521ZM96.3825 16.5738H108.058C107.434 13.7758 105.296 12.2172 102.297 12.2172C100.97 12.1947 99.6717 12.6089 98.6029 13.3961C97.5342 14.1833 96.754 15.2999 96.3825 16.5738Z" fill={fill}/>
    <path d="M114.123 18.6732C114.108 17.3389 114.361 16.0152 114.866 14.7799C115.371 13.5447 116.118 12.423 117.064 11.4808C118.009 10.5387 119.134 9.79512 120.371 9.29401C121.609 8.79289 122.934 8.54432 124.269 8.56294C128.586 8.56294 132.01 11.0116 133.49 14.5119L129.755 16.1081C129.32 15.0142 128.562 14.0785 127.582 13.4258C126.602 12.773 125.446 12.4339 124.269 12.4538C120.804 12.4538 118.2 15.2142 118.2 18.6732C118.187 19.4874 118.337 20.296 118.64 21.0517C118.943 21.8074 119.394 22.4951 119.967 23.0746C120.539 23.654 121.221 24.1136 121.974 24.4264C122.726 24.7392 123.533 24.899 124.348 24.8964C126.978 24.8964 128.94 23.2626 129.834 21.0844L133.592 22.6805C132.036 26.2559 128.804 28.7835 124.254 28.7835C122.921 28.7965 121.599 28.544 120.365 28.0407C119.131 27.5374 118.01 26.7934 117.066 25.8522C116.123 24.911 115.377 23.7914 114.872 22.5588C114.366 21.3261 114.112 20.0053 114.123 18.6732Z" fill={fill}/>
    <path d="M135.982 0H140.115V11.4022C140.828 10.5001 141.74 9.77454 142.78 9.28209C143.819 8.78964 144.958 8.54353 146.109 8.56293C151.013 8.56293 154 11.7515 154 17.0395V28.3966H149.75V17.4301C149.75 14.2002 148.194 12.1721 145.042 12.1721C142.28 12.1721 140.156 14.2716 140.156 17.693V28.3966H135.982V0Z" fill={fill}/>
    <path d="M1.02962 52.7897C1.02962 46.5628 5.66668 42.6682 10.7697 42.6682C12.0064 42.6589 13.2294 42.9271 14.3487 43.4529C15.4679 43.9788 16.4549 44.7489 17.2368 45.7065V43.0776H21.4079V62.0738C21.4079 67.7974 17.823 72 11.5889 72C6.70382 72 3.41203 69.664 1.93148 66.513L5.78693 64.6839C6.76018 66.8247 8.63154 68.1842 11.5889 68.1842C15.1362 68.1842 17.2781 65.5778 17.2781 62.2315V59.779C16.4969 60.7653 15.5018 61.5614 14.3678 62.1072C13.2339 62.6531 11.9907 62.9344 10.7321 62.9301C5.78317 62.9113 1.02962 58.9641 1.02962 52.7897ZM17.4698 52.7522C17.4698 49.2857 14.8393 46.4464 11.3146 46.4464C7.84618 46.4464 5.15939 49.2106 5.15939 52.7522C5.15939 56.2938 7.84618 59.0955 11.3146 59.0955C14.8581 59.0955 17.4698 56.2562 17.4698 52.7522Z" fill={fill}/>
    <path d="M25.0754 34.1053H29.2616V62.5207H25.0754V34.1053Z" fill={fill}/>
    <path d="M31.986 52.7897C31.9897 50.7916 32.5861 48.8394 33.7 47.1801C34.8138 45.5208 36.3949 44.2288 38.2434 43.4676C40.0918 42.7064 42.1246 42.5101 44.0847 42.9036C46.0448 43.297 47.8442 44.2626 49.2552 45.6781C50.6663 47.0936 51.6256 48.8955 52.012 50.856C52.3984 52.8165 52.1945 54.8474 51.426 56.692C50.6575 58.5366 49.3589 60.1121 47.6945 61.2191C46.0302 62.3261 44.0747 62.915 42.0755 62.9113C40.745 62.9198 39.426 62.6636 38.1956 62.1575C36.9652 61.6514 35.8478 60.9055 34.9087 59.9635C33.9696 59.0214 33.2275 57.9019 32.7257 56.6703C32.2239 55.4386 31.9725 54.1195 31.986 52.7897ZM48.0729 52.7897C48.0729 49.3646 45.4237 46.5628 42.0605 46.5628C38.6973 46.5628 36.1007 49.3646 36.1007 52.7897C36.1007 56.2149 38.7086 59.0204 42.0605 59.0204C45.4124 59.0204 48.0729 56.2149 48.0729 52.7897Z" fill={fill}/>
    <path d="M59.0267 59.8767V62.5057H54.9382V34.1053H59.0718V45.6652C59.8566 44.7142 60.8444 43.9508 61.9628 43.431C63.0812 42.9111 64.3017 42.6479 65.5351 42.6607C70.6381 42.6607 75.2338 46.5553 75.2338 52.801C75.2338 59.0467 70.5216 62.9225 65.5764 62.9225C62.961 62.9113 60.4697 61.7846 59.0267 59.8767ZM71.1041 52.7409C71.1041 49.1993 68.4135 46.4351 64.9489 46.4351C61.4842 46.4351 58.835 49.2744 58.835 52.7409C58.835 56.2074 61.4429 59.0842 64.9489 59.0842C68.4549 59.0842 71.1041 56.2938 71.1041 52.7522V52.7409Z" fill={fill}/>
    <path d="M77.0263 52.7897C77.0263 46.5628 81.6596 42.6682 86.7626 42.6682C89.3329 42.6682 91.7867 43.7949 93.2297 45.5901V43.0588H97.397V62.5207H93.2297V59.8354C92.4475 60.8049 91.4562 61.5851 90.3298 62.1178C89.2034 62.6504 87.9711 62.9217 86.7251 62.9113C81.7761 62.9113 77.0263 58.9641 77.0263 52.7897ZM93.4627 52.7522C93.4627 49.2857 90.8323 46.4464 87.3075 46.4464C83.8428 46.4464 81.1561 49.2106 81.1561 52.7522C81.1561 56.2938 83.8428 59.0955 87.3075 59.0955C90.8511 59.0955 93.4627 56.2562 93.4627 52.7522Z" fill={fill}/>
    <path d="M101.035 34.1053H105.202V62.5207H101.035V34.1053Z" fill={fill}/>
</svg>
