<svg width="100%" viewBox="0 0 264 82" fill="none" xmlns="http://www.w3.org/2000/svg">
    <path d="M89.2 10.15L94.0155 10.1971L99.0485 25.9161L104.837 10.1971H109.528L115.227 25.9161L120.439 10.1971H125.25L117.573 32.3406H113.005L107.131 16.5146L101.16 32.3406H96.532L89.2 10.15Z" fill={fill}/>
    <path d="M129.921 0.427729C130.343 0.410863 130.764 0.481859 131.158 0.636247C131.552 0.790634 131.909 1.02507 132.208 1.3248C132.507 1.62453 132.741 1.98306 132.895 2.37783C133.049 2.77259 133.119 3.19504 133.103 3.61859C133.072 4.44408 132.724 5.22568 132.131 5.79899C131.538 6.3723 130.747 6.69265 129.923 6.69265C129.099 6.69265 128.307 6.3723 127.714 5.79899C127.121 5.22568 126.773 4.44408 126.743 3.61859C126.726 3.19542 126.797 2.77334 126.951 2.37888C127.104 1.98441 127.338 1.62609 127.636 1.32643C127.935 1.02676 128.292 0.79223 128.685 0.637572C129.078 0.482913 129.499 0.411469 129.921 0.427729ZM127.532 10.1971H132.309V32.3406H127.532V10.1971Z" fill={fill}/>
    <path d="M134.549 27.7767L138.788 25.4756C140.068 27.5586 141.966 28.6621 144.615 28.6621C147.353 28.6621 148.769 27.3362 148.769 25.7835C148.769 23.97 146.116 23.5722 143.292 22.952C139.539 22.1992 135.564 20.9587 135.564 16.3949C135.564 12.896 138.92 9.66241 144.175 9.70946C148.441 9.70946 151.328 11.3006 153.184 13.9868L149.208 16.1553C148.151 14.5642 146.517 13.6317 144.175 13.6317C141.569 13.6317 140.337 14.8294 140.337 16.2922C140.337 17.8834 142.235 18.2384 145.591 18.9912C149.302 19.791 153.499 21.0272 153.499 25.6809C153.499 29.0001 150.539 32.8111 144.401 32.7641C139.624 32.7812 136.447 31.0574 134.549 27.7767Z" fill={fill}/>
    <path d="M155.295 21.3565C155.295 14.8465 160.285 9.75223 166.777 9.75223C173.269 9.75223 178.131 14.4915 178.131 21.0443V22.9049H159.846C160.464 26.3267 163.113 28.5766 166.956 28.5766C168.301 28.6114 169.627 28.253 170.772 27.5452C171.917 26.8373 172.832 25.8106 173.405 24.5902L177.291 26.7587C175.346 30.3902 171.857 32.7812 166.956 32.7812C159.978 32.7812 155.295 27.7767 155.295 21.3565ZM160.068 18.8757H173.316C172.608 15.6891 170.181 13.914 166.777 13.914C165.271 13.8879 163.798 14.3595 162.585 15.2562C161.373 16.1529 160.488 17.4248 160.068 18.8757Z" fill={fill}/>
    <path d="M179.296 10.1971H183.049V4.97022L187.822 2.35679V10.1971H192.514V14.4487H187.822V23.2599C187.822 27.2464 188.44 27.8666 192.514 27.8666V32.3406H191.81C185.096 32.3406 183.062 30.202 183.062 23.307V14.4487H179.308L179.296 10.1971Z" fill={fill}/>
    <path d="M193.832 21.3565C193.832 14.8465 198.822 9.75223 205.314 9.75223C211.806 9.75223 216.677 14.4915 216.677 21.0443V22.9049H198.383C199.001 26.3267 201.65 28.5766 205.493 28.5766C206.837 28.6117 208.163 28.2533 209.307 27.5454C210.452 26.8375 211.366 25.8106 211.938 24.5902L215.824 26.7587C213.879 30.3902 210.39 32.7812 205.489 32.7812C198.515 32.7812 193.832 27.7767 193.832 21.3565ZM198.6 18.8757H211.853C211.145 15.6891 208.718 13.914 205.314 13.914C203.807 13.8884 202.334 14.3602 201.121 15.2567C199.908 16.1533 199.022 17.4249 198.6 18.8757Z" fill={fill}/>
    <path d="M218.737 21.2667C218.72 19.7471 219.007 18.2395 219.58 16.8327C220.153 15.4259 221.002 14.1484 222.075 13.0754C223.148 12.0023 224.424 11.1555 225.829 10.5848C227.234 10.0141 228.738 9.73102 230.253 9.75223C235.154 9.75223 239.04 12.541 240.72 16.5275L236.48 18.3453C235.987 17.0995 235.126 16.0339 234.014 15.2904C232.902 14.547 231.59 14.1609 230.253 14.1835C226.32 14.1835 223.365 17.3273 223.365 21.2667C223.35 22.194 223.52 23.1149 223.864 23.9755C224.208 24.8362 224.72 25.6194 225.37 26.2794C226.02 26.9393 226.794 27.4627 227.648 27.8189C228.502 28.1752 229.418 28.3571 230.343 28.3542C233.328 28.3542 235.555 26.4936 236.57 24.0127L240.835 25.8306C239.069 29.9026 235.401 32.7812 230.236 32.7812C228.723 32.796 227.223 32.5084 225.822 31.9352C224.421 31.362 223.148 30.5147 222.078 29.4428C221.007 28.3708 220.161 27.0957 219.587 25.6919C219.013 24.2881 218.724 22.7838 218.737 21.2667Z" fill={fill}/>
    <path d="M243.548 0H248.24V12.9859C249.049 11.9584 250.084 11.1321 251.264 10.5713C252.444 10.0104 253.737 9.73013 255.043 9.75223C260.609 9.75223 264 13.3837 264 19.4061V32.3406H259.176V19.8509C259.176 16.1724 257.41 13.8627 253.832 13.8627C250.697 13.8627 248.287 16.2537 248.287 20.1503V32.3406H243.548V0Z" fill={fill}/>
    <path d="M0 58.2525H6.45338V38.8335H0V58.2525ZM25.8178 71.2084H32.2712V51.7895H25.8178V71.2084ZM64.5423 38.8335V58.2525H71V38.8335H64.5423ZM0 32.362H6.45338V0H0V32.362ZM12.9068 32.362H19.3644V0H12.9068V32.362ZM25.8178 32.362H32.2712V0H25.8178V32.362ZM38.7245 71.2127H45.1822V38.8507H38.7245V71.2127ZM51.6356 32.4133H58.089V0.0513275H51.6356V32.4133Z" fill={fill}/>
    <path d="M90.3687 60.1216C90.3687 53.0299 95.632 48.5943 101.424 48.5943C102.828 48.5838 104.216 48.8892 105.487 49.488C106.757 50.0869 107.877 50.964 108.765 52.0547V49.0606H113.499V70.6951C113.499 77.2137 109.43 82 102.354 82C96.8092 82 93.0728 79.3395 91.3923 75.7509L95.7685 73.6678C96.8732 76.1059 98.9973 77.6543 102.354 77.6543C106.381 77.6543 108.812 74.6858 108.812 70.8748V68.0817C107.925 69.2049 106.796 70.1116 105.508 70.7332C104.221 71.3549 102.81 71.6753 101.382 71.6703C95.7642 71.6489 90.3687 67.1535 90.3687 60.1216ZM109.029 60.0789C109.029 56.1309 106.044 52.8973 102.043 52.8973C98.1059 52.8973 95.0562 56.0454 95.0562 60.0789C95.0562 64.1124 98.1059 67.3032 102.043 67.3032C106.065 67.3032 109.029 64.0696 109.029 60.0789Z" fill={fill}/>
    <path d="M117.662 38.8421H122.414V71.2041H117.662V38.8421Z" fill={fill}/>
    <path d="M125.506 60.1216C125.51 57.846 126.187 55.6227 127.452 53.7329C128.716 51.8431 130.511 50.3717 132.609 49.5048C134.707 48.6378 137.014 48.4143 139.239 48.8624C141.464 49.3105 143.506 50.4101 145.108 52.0223C146.709 53.6344 147.798 55.6866 148.237 57.9193C148.676 60.1521 148.444 62.4651 147.572 64.5659C146.699 66.6667 145.226 68.461 143.336 69.7217C141.447 70.9825 139.228 71.6532 136.958 71.6489C135.448 71.6587 133.951 71.3668 132.554 70.7905C131.158 70.2141 129.89 69.3646 128.824 68.2917C127.758 67.2188 126.915 65.9438 126.346 64.5411C125.776 63.1384 125.491 61.6361 125.506 60.1216ZM143.766 60.1216C143.766 56.2207 140.759 53.0299 136.941 53.0299C133.124 53.0299 130.177 56.2207 130.177 60.1216C130.177 64.0225 133.137 67.2177 136.941 67.2177C140.746 67.2177 143.766 64.0225 143.766 60.1216Z" fill={fill}/>
    <path d="M156.199 68.1929V71.187H151.558V38.8421H156.25V52.0076C157.141 50.9246 158.262 50.0551 159.532 49.463C160.801 48.8709 162.187 48.5712 163.587 48.5858C169.379 48.5858 174.595 53.0213 174.595 60.1345C174.595 67.2476 169.247 71.6618 163.634 71.6618C160.665 71.6489 157.837 70.3658 156.199 68.1929ZM169.908 60.066C169.908 56.0325 166.854 52.8845 162.921 52.8845C158.989 52.8845 155.982 56.1181 155.982 60.066C155.982 64.014 158.942 67.2904 162.921 67.2904C166.901 67.2904 169.908 64.1124 169.908 60.0789V60.066Z" fill={fill}/>
    <path d="M176.63 60.1216C176.63 53.0299 181.889 48.5943 187.681 48.5943C190.599 48.5943 193.384 49.8775 195.022 51.9221V49.0392H199.752V71.2041H195.022V68.1458C194.134 69.25 193.009 70.1386 191.73 70.7452C190.452 71.3519 189.053 71.6608 187.639 71.6489C182.021 71.6489 176.63 67.1535 176.63 60.1216ZM195.286 60.0789C195.286 56.1309 192.301 52.8973 188.3 52.8973C184.367 52.8973 181.317 56.0454 181.317 60.0789C181.317 64.1124 184.367 67.3032 188.3 67.3032C192.322 67.3032 195.286 64.0696 195.286 60.0789Z" fill={fill}/>
    <path d="M203.881 38.8421H208.611V71.2041H203.881V38.8421Z" fill={fill}/>
    <path d="M0 58.2525H6.45338V38.8335H0V58.2525ZM25.8178 71.2084H32.2712V51.7895H25.8178V71.2084ZM64.5423 38.8335V58.2525H71V38.8335H64.5423ZM0 32.362H6.45338V0H0V32.362ZM12.9068 32.362H19.3644V0H12.9068V32.362ZM25.8178 32.362H32.2712V0H25.8178V32.362ZM38.7245 71.2127H45.1822V38.8507H38.7245V71.2127ZM51.6356 32.4133H58.089V0.0513275H51.6356V32.4133Z" fill={fill}/>
</svg>
