<svg class="svg-icon" style="width: 32; height: 32;vertical-align: middle;overflow: hidden;" viewBox="0 0 1024 1024" version="1.1" xmlns="http://www.w3.org/2000/svg">
<path d="M465.455 232.727A209.455 209.455 0 0 0 256 442.182c0 24.739 4.515 48.337 12.381 70.353a139.567 139.567 0 0 0 10.892 278.738h418.909a186.182 186.182 0 0 0 0-372.364c-8.285 0-16.384 0.722-24.367 1.769a209.455 209.455 0 0 0-208.36-187.95m0 46.545a162.304 162.304 0 0 1 162.048 146.13l4.864 47.662 47.5-6.214c7.19-0.954 13.009-1.396 18.315-1.396 77.01 0 139.636 62.626 139.636 139.636s-62.627 139.636-139.636 139.636h-418.91c-51.339 0-93.09-41.751-93.09-93.09a93.393 93.393 0 0 1 85.783-92.673l60.742-4.724-20.503-57.344a162.583 162.583 0 0 1-9.659-54.714c0-89.833 73.077-162.91 162.91-162.91" />
</svg>